<?xml version="1.0" encoding="UTF-8"?>
<!DOCTYPE svg PUBLIC '-//W3C//DTD SVG 1.1//EN' 'http://www.w3.org/Graphics/SVG/1.1/DTD/svg11.dtd'>
<svg width="551.58" height="544.53" font-family="DejaVu Sans" font-size="40" xmlns="http://www.w3.org/2000/svg">
 <g fill="#fff" stroke="#000" stroke-width="3">
  <path transform="translate(-41.1 -1276.2)" d="m475.8 1626.5c0-136-.03-139-1.94-140-36.5-42.9-16.2-130-3.65-163.76-.5-.19-18.2-7.43-39.42-16.1l-38.5-15.76c-32.2-16.8-118-18.2-151.53 1.17-2.5.48-81 31.3-82 32.24 16.7 16.6 22.2 132-1.97 162.09v279.08h319v-138.96z"/>
  <path transform="translate(-41.1 -1276.2)" d="m325.4 1343.6c13.6-8.46 37.8-45.4 34.78-61.83-22.5-4.73-67-6.21-88.98.43-.12 20 14 48.3 29.44 60.04 7.7 4.76 15.9 5.21 24.76 1.37z"/>
  <path transform="translate(-41.1 -1276.2)" d="m361.1 1281.5c-.74 13-21.4 64.1-47 64.78-3.68.04-5.06-.95-6.97-1.69h-.03c-32.4-16-38.6-61.9-33.88-63-1.73 0-7.68 1.19-10.75 2.31 22.6 101 87.1 83.4 109.59.03l-10.97-2.44zm193.8 173.4c13.7-23.6 24.8-43.3 24.86-43.69s-22.9-19.9-50.94-43.23c-32.2-26.8-56.8-45-57.73-44.6-18.7 34.5-31.3 130 3.92 162.26 7.77.26 19.6 2.27 28.03 4.89 13.9 4.29 25.6 7.69 26.14 7.56s12.1-19.6 25.73-43.19zm-398.7 30.4c17.8-13.5 25-122 3.16-161-.89 0-106 88.1-106.31 89.14-.17.45 10.6 20.1 23.88 43.75l24.19 42.92 26.12-8.56c19.3-6.33 27.3-4.46 28.97-6.25z"/>
  <path transform="matrix(.4895 .872 -.8608 .5089 -1710.3 -532.24)" d="m1453.1-1174.2h99.62v11.29h-99.62z"/>
  <path transform="matrix(-.4995 .8663 .8667 .4988 -1710.3 -532.24)" d="m-544.35 2282.1h100.81v11.58h-100.81z"/>
 </g>
</svg>
